<svg xmlns="http://www.w3.org/2000/svg" viewBox="0 0 296 296" width="296" height="296" shape-rendering="geometricPrecision"><rect width="296" height="296" rx="16" ry="16" fill="#000000"/><circle cx="100" cy="36" r="3.36" fill="#666666"/><circle cx="124" cy="36" r="3.36" fill="#666666"/><circle cx="132" cy="36" r="3.36" fill="#666666"/><circle cx="148" cy="36" r="3.36" fill="#666666"/><circle cx="156" cy="36" r="3.36" fill="#666666"/><circle cx="164" cy="36" r="3.36" fill="#666666"/><circle cx="180" cy="36" r="3.36" fill="#666666"/><circle cx="188" cy="36" r="3.36" fill="#666666"/><circle cx="116" cy="44" r="3.36" fill="#666666"/><circle cx="148" cy="44" r="3.36" fill="#666666"/><circle cx="172" cy="44" r="3.36" fill="#666666"/><circle cx="188" cy="44" r="3.36" fill="#666666"/><circle cx="100" cy="52" r="3.36" fill="#666666"/><circle cx="116" cy="52" r="3.36" fill="#666666"/><circle cx="124" cy="52" r="3.36" fill="#666666"/><circle cx="132" cy="52" r="3.36" fill="#666666"/><circle cx="140" cy="52" r="3.36" fill="#666666"/><circle cx="148" cy="52" r="3.36" fill="#666666"/><circle cx="156" cy="52" r="3.36" fill="#666666"/><circle cx="164" cy="52" r="3.36" fill="#666666"/><circle cx="188" cy="52" r="3.36" fill="#666666"/><circle cx="196" cy="52" r="3.36" fill="#666666"/><circle cx="108" cy="60" r="3.36" fill="#666666"/><circle cx="116" cy="60" r="3.36" fill="#666666"/><circle cx="124" cy="60" r="3.36" fill="#666666"/><circle cx="132" cy="60" r="3.36" fill="#666666"/><circle cx="172" cy="60" r="3.36" fill="#666666"/><circle cx="188" cy="60" r="3.36" fill="#666666"/><circle cx="196" cy="60" r="3.36" fill="#666666"/><circle cx="100" cy="68" r="3.36" fill="#666666"/><circle cx="108" cy="68" r="3.36" fill="#666666"/><circle cx="124" cy="68" r="3.36" fill="#666666"/><circle cx="156" cy="68" r="3.36" fill="#666666"/><circle cx="164" cy="68" r="3.36" fill="#666666"/><circle cx="188" cy="68" r="3.36" fill="#666666"/><circle cx="196" cy="68" r="3.36" fill="#666666"/><circle cx="116" cy="76" r="3.36" fill="#666666"/><circle cx="124" cy="76" r="3.36" fill="#666666"/><circle cx="132" cy="76" r="3.36" fill="#666666"/><circle cx="140" cy="76" r="3.36" fill="#666666"/><circle cx="148" cy="76" r="3.36" fill="#666666"/><circle cx="180" cy="76" r="3.36" fill="#666666"/><circle cx="196" cy="76" r="3.36" fill="#666666"/><circle cx="100" cy="84" r="3.36" fill="#666666"/><circle cx="116" cy="84" r="3.36" fill="#666666"/><circle cx="132" cy="84" r="3.36" fill="#666666"/><circle cx="148" cy="84" r="3.36" fill="#666666"/><circle cx="164" cy="84" r="3.36" fill="#666666"/><circle cx="180" cy="84" r="3.36" fill="#666666"/><circle cx="196" cy="84" r="3.36" fill="#666666"/><circle cx="100" cy="92" r="3.36" fill="#666666"/><circle cx="116" cy="92" r="3.36" fill="#666666"/><circle cx="132" cy="92" r="3.36" fill="#666666"/><circle cx="156" cy="92" r="3.36" fill="#666666"/><circle cx="164" cy="92" r="3.36" fill="#666666"/><circle cx="188" cy="92" r="3.36" fill="#666666"/><circle cx="76" cy="100" r="3.36" fill="#666666"/><circle cx="84" cy="100" r="3.36" fill="#666666"/><circle cx="108" cy="100" r="3.36" fill="#666666"/><circle cx="148" cy="100" r="3.36" fill="#666666"/><circle cx="180" cy="100" r="3.36" fill="#666666"/><circle cx="196" cy="100" r="3.36" fill="#666666"/><circle cx="212" cy="100" r="3.36" fill="#666666"/><circle cx="228" cy="100" r="3.36" fill="#666666"/><circle cx="244" cy="100" r="3.36" fill="#666666"/><circle cx="260" cy="100" r="3.36" fill="#666666"/><circle cx="36" cy="108" r="3.36" fill="#666666"/><circle cx="44" cy="108" r="3.36" fill="#666666"/><circle cx="68" cy="108" r="3.36" fill="#666666"/><circle cx="92" cy="108" r="3.36" fill="#666666"/><circle cx="100" cy="108" r="3.36" fill="#666666"/><circle cx="108" cy="108" r="3.36" fill="#666666"/><circle cx="116" cy="108" r="3.36" fill="#666666"/><circle cx="124" cy="108" r="3.36" fill="#666666"/><circle cx="132" cy="108" r="3.36" fill="#666666"/><circle cx="140" cy="108" r="3.36" fill="#666666"/><circle cx="164" cy="108" r="3.36" fill="#666666"/><circle cx="196" cy="108" r="3.36" fill="#666666"/><circle cx="220" cy="108" r="3.36" fill="#666666"/><circle cx="228" cy="108" r="3.36" fill="#666666"/><circle cx="236" cy="108" r="3.36" fill="#666666"/><circle cx="252" cy="108" r="3.36" fill="#666666"/><circle cx="36" cy="116" r="3.36" fill="#666666"/><circle cx="44" cy="116" r="3.36" fill="#666666"/><circle cx="52" cy="116" r="3.36" fill="#666666"/><circle cx="60" cy="116" r="3.36" fill="#666666"/><circle cx="76" cy="116" r="3.36" fill="#666666"/><circle cx="84" cy="116" r="3.36" fill="#666666"/><circle cx="100" cy="116" r="3.36" fill="#666666"/><circle cx="116" cy="116" r="3.36" fill="#666666"/><circle cx="124" cy="116" r="3.36" fill="#666666"/><circle cx="132" cy="116" r="3.36" fill="#666666"/><circle cx="140" cy="116" r="3.36" fill="#666666"/><circle cx="148" cy="116" r="3.36" fill="#666666"/><circle cx="156" cy="116" r="3.36" fill="#666666"/><circle cx="172" cy="116" r="3.36" fill="#666666"/><circle cx="180" cy="116" r="3.36" fill="#666666"/><circle cx="196" cy="116" r="3.36" fill="#666666"/><circle cx="204" cy="116" r="3.36" fill="#666666"/><circle cx="212" cy="116" r="3.36" fill="#666666"/><circle cx="236" cy="116" r="3.36" fill="#666666"/><circle cx="52" cy="124" r="3.36" fill="#666666"/><circle cx="76" cy="124" r="3.36" fill="#666666"/><circle cx="108" cy="124" r="3.36" fill="#666666"/><circle cx="132" cy="124" r="3.36" fill="#666666"/><circle cx="156" cy="124" r="3.36" fill="#666666"/><circle cx="172" cy="124" r="3.36" fill="#666666"/><circle cx="212" cy="124" r="3.36" fill="#666666"/><circle cx="220" cy="124" r="3.36" fill="#666666"/><circle cx="236" cy="124" r="3.36" fill="#666666"/><circle cx="44" cy="132" r="3.36" fill="#666666"/><circle cx="52" cy="132" r="3.36" fill="#666666"/><circle cx="68" cy="132" r="3.36" fill="#666666"/><circle cx="84" cy="132" r="3.36" fill="#666666"/><circle cx="92" cy="132" r="3.36" fill="#666666"/><circle cx="100" cy="132" r="3.36" fill="#666666"/><circle cx="116" cy="132" r="3.36" fill="#666666"/><circle cx="132" cy="132" r="3.36" fill="#666666"/><circle cx="148" cy="132" r="3.36" fill="#666666"/><circle cx="156" cy="132" r="3.36" fill="#666666"/><circle cx="172" cy="132" r="3.36" fill="#666666"/><circle cx="188" cy="132" r="3.36" fill="#666666"/><circle cx="196" cy="132" r="3.36" fill="#666666"/><circle cx="204" cy="132" r="3.36" fill="#666666"/><circle cx="212" cy="132" r="3.36" fill="#666666"/><circle cx="236" cy="132" r="3.36" fill="#666666"/><circle cx="252" cy="132" r="3.36" fill="#666666"/><circle cx="36" cy="140" r="3.36" fill="#666666"/><circle cx="44" cy="140" r="3.36" fill="#666666"/><circle cx="52" cy="140" r="3.36" fill="#666666"/><circle cx="68" cy="140" r="3.36" fill="#666666"/><circle cx="76" cy="140" r="3.36" fill="#666666"/><circle cx="92" cy="140" r="3.36" fill="#666666"/><circle cx="100" cy="140" r="3.36" fill="#666666"/><circle cx="132" cy="140" r="3.36" fill="#666666"/><circle cx="140" cy="140" r="3.36" fill="#666666"/><circle cx="156" cy="140" r="3.36" fill="#666666"/><circle cx="188" cy="140" r="3.36" fill="#666666"/><circle cx="196" cy="140" r="3.36" fill="#666666"/><circle cx="212" cy="140" r="3.36" fill="#666666"/><circle cx="228" cy="140" r="3.36" fill="#666666"/><circle cx="236" cy="140" r="3.36" fill="#666666"/><circle cx="260" cy="140" r="3.36" fill="#666666"/><circle cx="44" cy="148" r="3.36" fill="#666666"/><circle cx="68" cy="148" r="3.36" fill="#666666"/><circle cx="76" cy="148" r="3.36" fill="#666666"/><circle cx="84" cy="148" r="3.36" fill="#666666"/><circle cx="100" cy="148" r="3.36" fill="#666666"/><circle cx="108" cy="148" r="3.36" fill="#666666"/><circle cx="116" cy="148" r="3.36" fill="#666666"/><circle cx="132" cy="148" r="3.36" fill="#666666"/><circle cx="140" cy="148" r="3.36" fill="#666666"/><circle cx="156" cy="148" r="3.36" fill="#666666"/><circle cx="180" cy="148" r="3.36" fill="#666666"/><circle cx="196" cy="148" r="3.36" fill="#666666"/><circle cx="204" cy="148" r="3.36" fill="#666666"/><circle cx="220" cy="148" r="3.36" fill="#666666"/><circle cx="44" cy="156" r="3.36" fill="#666666"/><circle cx="60" cy="156" r="3.36" fill="#666666"/><circle cx="68" cy="156" r="3.36" fill="#666666"/><circle cx="92" cy="156" r="3.36" fill="#666666"/><circle cx="148" cy="156" r="3.36" fill="#666666"/><circle cx="172" cy="156" r="3.36" fill="#666666"/><circle cx="188" cy="156" r="3.36" fill="#666666"/><circle cx="196" cy="156" r="3.36" fill="#666666"/><circle cx="204" cy="156" r="3.36" fill="#666666"/><circle cx="212" cy="156" r="3.36" fill="#666666"/><circle cx="228" cy="156" r="3.36" fill="#666666"/><circle cx="236" cy="156" r="3.36" fill="#666666"/><circle cx="244" cy="156" r="3.36" fill="#666666"/><circle cx="252" cy="156" r="3.36" fill="#666666"/><circle cx="260" cy="156" r="3.36" fill="#666666"/><circle cx="44" cy="164" r="3.36" fill="#666666"/><circle cx="60" cy="164" r="3.36" fill="#666666"/><circle cx="68" cy="164" r="3.36" fill="#666666"/><circle cx="84" cy="164" r="3.36" fill="#666666"/><circle cx="92" cy="164" r="3.36" fill="#666666"/><circle cx="108" cy="164" r="3.36" fill="#666666"/><circle cx="132" cy="164" r="3.36" fill="#666666"/><circle cx="172" cy="164" r="3.36" fill="#666666"/><circle cx="236" cy="164" r="3.36" fill="#666666"/><circle cx="244" cy="164" r="3.36" fill="#666666"/><circle cx="36" cy="172" r="3.36" fill="#666666"/><circle cx="52" cy="172" r="3.36" fill="#666666"/><circle cx="60" cy="172" r="3.36" fill="#666666"/><circle cx="68" cy="172" r="3.36" fill="#666666"/><circle cx="108" cy="172" r="3.36" fill="#666666"/><circle cx="116" cy="172" r="3.36" fill="#666666"/><circle cx="132" cy="172" r="3.36" fill="#666666"/><circle cx="140" cy="172" r="3.36" fill="#666666"/><circle cx="164" cy="172" r="3.36" fill="#666666"/><circle cx="196" cy="172" r="3.36" fill="#666666"/><circle cx="212" cy="172" r="3.36" fill="#666666"/><circle cx="228" cy="172" r="3.36" fill="#666666"/><circle cx="244" cy="172" r="3.36" fill="#666666"/><circle cx="260" cy="172" r="3.36" fill="#666666"/><circle cx="36" cy="180" r="3.36" fill="#666666"/><circle cx="44" cy="180" r="3.36" fill="#666666"/><circle cx="52" cy="180" r="3.36" fill="#666666"/><circle cx="60" cy="180" r="3.36" fill="#666666"/><circle cx="76" cy="180" r="3.36" fill="#666666"/><circle cx="84" cy="180" r="3.36" fill="#666666"/><circle cx="116" cy="180" r="3.36" fill="#666666"/><circle cx="132" cy="180" r="3.36" fill="#666666"/><circle cx="140" cy="180" r="3.36" fill="#666666"/><circle cx="148" cy="180" r="3.36" fill="#666666"/><circle cx="156" cy="180" r="3.36" fill="#666666"/><circle cx="196" cy="180" r="3.36" fill="#666666"/><circle cx="220" cy="180" r="3.36" fill="#666666"/><circle cx="228" cy="180" r="3.36" fill="#666666"/><circle cx="244" cy="180" r="3.36" fill="#666666"/><circle cx="260" cy="180" r="3.36" fill="#666666"/><circle cx="36" cy="188" r="3.36" fill="#666666"/><circle cx="100" cy="188" r="3.36" fill="#666666"/><circle cx="108" cy="188" r="3.36" fill="#666666"/><circle cx="116" cy="188" r="3.36" fill="#666666"/><circle cx="124" cy="188" r="3.36" fill="#666666"/><circle cx="132" cy="188" r="3.36" fill="#666666"/><circle cx="164" cy="188" r="3.36" fill="#666666"/><circle cx="180" cy="188" r="3.36" fill="#666666"/><circle cx="188" cy="188" r="3.36" fill="#666666"/><circle cx="196" cy="188" r="3.36" fill="#666666"/><circle cx="204" cy="188" r="3.36" fill="#666666"/><circle cx="212" cy="188" r="3.36" fill="#666666"/><circle cx="220" cy="188" r="3.36" fill="#666666"/><circle cx="228" cy="188" r="3.36" fill="#666666"/><circle cx="236" cy="188" r="3.36" fill="#666666"/><circle cx="36" cy="196" r="3.36" fill="#666666"/><circle cx="52" cy="196" r="3.36" fill="#666666"/><circle cx="60" cy="196" r="3.36" fill="#666666"/><circle cx="68" cy="196" r="3.36" fill="#666666"/><circle cx="84" cy="196" r="3.36" fill="#666666"/><circle cx="108" cy="196" r="3.36" fill="#666666"/><circle cx="132" cy="196" r="3.36" fill="#666666"/><circle cx="140" cy="196" r="3.36" fill="#666666"/><circle cx="156" cy="196" r="3.36" fill="#666666"/><circle cx="164" cy="196" r="3.36" fill="#666666"/><circle cx="172" cy="196" r="3.36" fill="#666666"/><circle cx="180" cy="196" r="3.36" fill="#666666"/><circle cx="188" cy="196" r="3.36" fill="#666666"/><circle cx="196" cy="196" r="3.36" fill="#666666"/><circle cx="204" cy="196" r="3.36" fill="#666666"/><circle cx="212" cy="196" r="3.36" fill="#666666"/><circle cx="220" cy="196" r="3.36" fill="#666666"/><circle cx="228" cy="196" r="3.36" fill="#666666"/><circle cx="244" cy="196" r="3.36" fill="#666666"/><circle cx="100" cy="204" r="3.36" fill="#666666"/><circle cx="124" cy="204" r="3.36" fill="#666666"/><circle cx="132" cy="204" r="3.36" fill="#666666"/><circle cx="156" cy="204" r="3.36" fill="#666666"/><circle cx="188" cy="204" r="3.36" fill="#666666"/><circle cx="196" cy="204" r="3.36" fill="#666666"/><circle cx="228" cy="204" r="3.36" fill="#666666"/><circle cx="236" cy="204" r="3.36" fill="#666666"/><circle cx="244" cy="204" r="3.36" fill="#666666"/><circle cx="108" cy="212" r="3.36" fill="#666666"/><circle cx="116" cy="212" r="3.36" fill="#666666"/><circle cx="148" cy="212" r="3.36" fill="#666666"/><circle cx="156" cy="212" r="3.36" fill="#666666"/><circle cx="172" cy="212" r="3.36" fill="#666666"/><circle cx="180" cy="212" r="3.36" fill="#666666"/><circle cx="188" cy="212" r="3.36" fill="#666666"/><circle cx="196" cy="212" r="3.36" fill="#666666"/><circle cx="212" cy="212" r="3.36" fill="#666666"/><circle cx="228" cy="212" r="3.36" fill="#666666"/><circle cx="100" cy="220" r="3.36" fill="#666666"/><circle cx="116" cy="220" r="3.36" fill="#666666"/><circle cx="148" cy="220" r="3.36" fill="#666666"/><circle cx="156" cy="220" r="3.36" fill="#666666"/><circle cx="164" cy="220" r="3.36" fill="#666666"/><circle cx="172" cy="220" r="3.36" fill="#666666"/><circle cx="180" cy="220" r="3.36" fill="#666666"/><circle cx="188" cy="220" r="3.36" fill="#666666"/><circle cx="196" cy="220" r="3.36" fill="#666666"/><circle cx="228" cy="220" r="3.36" fill="#666666"/><circle cx="236" cy="220" r="3.36" fill="#666666"/><circle cx="260" cy="220" r="3.36" fill="#666666"/><circle cx="108" cy="228" r="3.36" fill="#666666"/><circle cx="116" cy="228" r="3.36" fill="#666666"/><circle cx="124" cy="228" r="3.36" fill="#666666"/><circle cx="140" cy="228" r="3.36" fill="#666666"/><circle cx="148" cy="228" r="3.36" fill="#666666"/><circle cx="164" cy="228" r="3.36" fill="#666666"/><circle cx="180" cy="228" r="3.36" fill="#666666"/><circle cx="188" cy="228" r="3.36" fill="#666666"/><circle cx="196" cy="228" r="3.36" fill="#666666"/><circle cx="204" cy="228" r="3.36" fill="#666666"/><circle cx="212" cy="228" r="3.36" fill="#666666"/><circle cx="220" cy="228" r="3.36" fill="#666666"/><circle cx="228" cy="228" r="3.36" fill="#666666"/><circle cx="252" cy="228" r="3.36" fill="#666666"/><circle cx="260" cy="228" r="3.36" fill="#666666"/><circle cx="108" cy="236" r="3.36" fill="#666666"/><circle cx="116" cy="236" r="3.36" fill="#666666"/><circle cx="124" cy="236" r="3.36" fill="#666666"/><circle cx="140" cy="236" r="3.36" fill="#666666"/><circle cx="148" cy="236" r="3.36" fill="#666666"/><circle cx="156" cy="236" r="3.36" fill="#666666"/><circle cx="164" cy="236" r="3.36" fill="#666666"/><circle cx="188" cy="236" r="3.36" fill="#666666"/><circle cx="196" cy="236" r="3.36" fill="#666666"/><circle cx="220" cy="236" r="3.36" fill="#666666"/><circle cx="236" cy="236" r="3.36" fill="#666666"/><circle cx="244" cy="236" r="3.36" fill="#666666"/><circle cx="252" cy="236" r="3.36" fill="#666666"/><circle cx="116" cy="244" r="3.36" fill="#666666"/><circle cx="140" cy="244" r="3.36" fill="#666666"/><circle cx="172" cy="244" r="3.36" fill="#666666"/><circle cx="180" cy="244" r="3.36" fill="#666666"/><circle cx="188" cy="244" r="3.36" fill="#666666"/><circle cx="196" cy="244" r="3.36" fill="#666666"/><circle cx="204" cy="244" r="3.36" fill="#666666"/><circle cx="212" cy="244" r="3.36" fill="#666666"/><circle cx="220" cy="244" r="3.36" fill="#666666"/><circle cx="228" cy="244" r="3.36" fill="#666666"/><circle cx="244" cy="244" r="3.36" fill="#666666"/><circle cx="252" cy="244" r="3.36" fill="#666666"/><circle cx="108" cy="252" r="3.36" fill="#666666"/><circle cx="132" cy="252" r="3.36" fill="#666666"/><circle cx="148" cy="252" r="3.36" fill="#666666"/><circle cx="196" cy="252" r="3.36" fill="#666666"/><circle cx="228" cy="252" r="3.36" fill="#666666"/><circle cx="236" cy="252" r="3.36" fill="#666666"/><circle cx="244" cy="252" r="3.36" fill="#666666"/><circle cx="260" cy="252" r="3.36" fill="#666666"/><circle cx="124" cy="260" r="3.36" fill="#666666"/><circle cx="132" cy="260" r="3.36" fill="#666666"/><circle cx="148" cy="260" r="3.36" fill="#666666"/><circle cx="228" cy="260" r="3.36" fill="#666666"/><circle cx="244" cy="260" r="3.36" fill="#666666"/><rect x="32" y="32" width="56" height="56" rx="19.2" ry="19.2" fill="#444444"/><rect x="40" y="40" width="40" height="40" rx="12.8" ry="12.8" fill="#000000"/><circle cx="60" cy="60" r="12" fill="#999999"/><rect x="208" y="32" width="56" height="56" rx="19.2" ry="19.2" fill="#444444"/><rect x="216" y="40" width="40" height="40" rx="12.8" ry="12.8" fill="#000000"/><circle cx="236" cy="60" r="12" fill="#999999"/><rect x="32" y="208" width="56" height="56" rx="19.2" ry="19.2" fill="#444444"/><rect x="40" y="216" width="40" height="40" rx="12.8" ry="12.8" fill="#000000"/><circle cx="60" cy="236" r="12" fill="#999999"/></svg>