<svg xmlns="http://www.w3.org/2000/svg" viewBox="0 0 424 424" width="424" height="424" shape-rendering="geometricPrecision"><rect width="424" height="424" rx="16" ry="16" fill="#000000"/><circle cx="108" cy="36" r="3.36" fill="#00CEC9"/><circle cx="124" cy="36" r="3.36" fill="#00CEC9"/><circle cx="140" cy="36" r="3.36" fill="#00CEC9"/><circle cx="164" cy="36" r="3.36" fill="#00CEC9"/><circle cx="180" cy="36" r="3.36" fill="#00CEC9"/><circle cx="188" cy="36" r="3.36" fill="#00CEC9"/><circle cx="212" cy="36" r="3.36" fill="#00CEC9"/><circle cx="228" cy="36" r="3.36" fill="#00CEC9"/><circle cx="244" cy="36" r="3.36" fill="#00CEC9"/><circle cx="268" cy="36" r="3.36" fill="#00CEC9"/><circle cx="276" cy="36" r="3.36" fill="#00CEC9"/><circle cx="284" cy="36" r="3.36" fill="#00CEC9"/><circle cx="300" cy="36" r="3.36" fill="#00CEC9"/><circle cx="324" cy="36" r="3.36" fill="#00CEC9"/><circle cx="108" cy="44" r="3.36" fill="#00CEC9"/><circle cx="116" cy="44" r="3.36" fill="#00CEC9"/><circle cx="140" cy="44" r="3.36" fill="#00CEC9"/><circle cx="148" cy="44" r="3.36" fill="#00CEC9"/><circle cx="156" cy="44" r="3.36" fill="#00CEC9"/><circle cx="180" cy="44" r="3.36" fill="#00CEC9"/><circle cx="196" cy="44" r="3.36" fill="#00CEC9"/><circle cx="220" cy="44" r="3.36" fill="#00CEC9"/><circle cx="276" cy="44" r="3.36" fill="#00CEC9"/><circle cx="292" cy="44" r="3.36" fill="#00CEC9"/><circle cx="316" cy="44" r="3.36" fill="#00CEC9"/><circle cx="108" cy="52" r="3.36" fill="#00CEC9"/><circle cx="140" cy="52" r="3.36" fill="#00CEC9"/><circle cx="164" cy="52" r="3.36" fill="#00CEC9"/><circle cx="172" cy="52" r="3.36" fill="#00CEC9"/><circle cx="180" cy="52" r="3.36" fill="#00CEC9"/><circle cx="188" cy="52" r="3.36" fill="#00CEC9"/><circle cx="236" cy="52" r="3.36" fill="#00CEC9"/><circle cx="252" cy="52" r="3.36" fill="#00CEC9"/><circle cx="268" cy="52" r="3.36" fill="#00CEC9"/><circle cx="276" cy="52" r="3.36" fill="#00CEC9"/><circle cx="284" cy="52" r="3.36" fill="#00CEC9"/><circle cx="316" cy="52" r="3.36" fill="#00CEC9"/><circle cx="108" cy="60" r="3.36" fill="#00CEC9"/><circle cx="116" cy="60" r="3.36" fill="#00CEC9"/><circle cx="124" cy="60" r="3.36" fill="#00CEC9"/><circle cx="148" cy="60" r="3.36" fill="#00CEC9"/><circle cx="164" cy="60" r="3.36" fill="#00CEC9"/><circle cx="172" cy="60" r="3.36" fill="#00CEC9"/><circle cx="180" cy="60" r="3.36" fill="#00CEC9"/><circle cx="188" cy="60" r="3.36" fill="#00CEC9"/><circle cx="204" cy="60" r="3.36" fill="#00CEC9"/><circle cx="220" cy="60" r="3.36" fill="#00CEC9"/><circle cx="228" cy="60" r="3.36" fill="#00CEC9"/><circle cx="252" cy="60" r="3.36" fill="#00CEC9"/><circle cx="268" cy="60" r="3.36" fill="#00CEC9"/><circle cx="300" cy="60" r="3.36" fill="#00CEC9"/><circle cx="316" cy="60" r="3.36" fill="#00CEC9"/><circle cx="324" cy="60" r="3.36" fill="#00CEC9"/><circle cx="100" cy="68" r="3.36" fill="#00CEC9"/><circle cx="116" cy="68" r="3.36" fill="#00CEC9"/><circle cx="140" cy="68" r="3.36" fill="#00CEC9"/><circle cx="148" cy="68" r="3.36" fill="#00CEC9"/><circle cx="156" cy="68" r="3.36" fill="#00CEC9"/><circle cx="164" cy="68" r="3.36" fill="#00CEC9"/><circle cx="180" cy="68" r="3.36" fill="#00CEC9"/><circle cx="196" cy="68" r="3.36" fill="#00CEC9"/><circle cx="204" cy="68" r="3.36" fill="#00CEC9"/><circle cx="212" cy="68" r="3.36" fill="#00CEC9"/><circle cx="220" cy="68" r="3.36" fill="#00CEC9"/><circle cx="228" cy="68" r="3.36" fill="#00CEC9"/><circle cx="260" cy="68" r="3.36" fill="#00CEC9"/><circle cx="292" cy="68" r="3.36" fill="#00CEC9"/><circle cx="300" cy="68" r="3.36" fill="#00CEC9"/><circle cx="308" cy="68" r="3.36" fill="#00CEC9"/><circle cx="316" cy="68" r="3.36" fill="#00CEC9"/><circle cx="324" cy="68" r="3.36" fill="#00CEC9"/><circle cx="124" cy="76" r="3.36" fill="#00CEC9"/><circle cx="164" cy="76" r="3.36" fill="#00CEC9"/><circle cx="172" cy="76" r="3.36" fill="#00CEC9"/><circle cx="188" cy="76" r="3.36" fill="#00CEC9"/><circle cx="196" cy="76" r="3.36" fill="#00CEC9"/><circle cx="228" cy="76" r="3.36" fill="#00CEC9"/><circle cx="236" cy="76" r="3.36" fill="#00CEC9"/><circle cx="244" cy="76" r="3.36" fill="#00CEC9"/><circle cx="260" cy="76" r="3.36" fill="#00CEC9"/><circle cx="268" cy="76" r="3.36" fill="#00CEC9"/><circle cx="276" cy="76" r="3.36" fill="#00CEC9"/><circle cx="284" cy="76" r="3.36" fill="#00CEC9"/><circle cx="100" cy="84" r="3.36" fill="#00CEC9"/><circle cx="116" cy="84" r="3.36" fill="#00CEC9"/><circle cx="132" cy="84" r="3.36" fill="#00CEC9"/><circle cx="148" cy="84" r="3.36" fill="#00CEC9"/><circle cx="164" cy="84" r="3.36" fill="#00CEC9"/><circle cx="180" cy="84" r="3.36" fill="#00CEC9"/><circle cx="196" cy="84" r="3.36" fill="#00CEC9"/><circle cx="212" cy="84" r="3.36" fill="#00CEC9"/><circle cx="228" cy="84" r="3.36" fill="#00CEC9"/><circle cx="244" cy="84" r="3.36" fill="#00CEC9"/><circle cx="260" cy="84" r="3.36" fill="#00CEC9"/><circle cx="276" cy="84" r="3.36" fill="#00CEC9"/><circle cx="292" cy="84" r="3.36" fill="#00CEC9"/><circle cx="308" cy="84" r="3.36" fill="#00CEC9"/><circle cx="324" cy="84" r="3.36" fill="#00CEC9"/><circle cx="100" cy="92" r="3.36" fill="#00CEC9"/><circle cx="108" cy="92" r="3.36" fill="#00CEC9"/><circle cx="156" cy="92" r="3.36" fill="#00CEC9"/><circle cx="164" cy="92" r="3.36" fill="#00CEC9"/><circle cx="172" cy="92" r="3.36" fill="#00CEC9"/><circle cx="180" cy="92" r="3.36" fill="#00CEC9"/><circle cx="196" cy="92" r="3.36" fill="#00CEC9"/><circle cx="228" cy="92" r="3.36" fill="#00CEC9"/><circle cx="260" cy="92" r="3.36" fill="#00CEC9"/><circle cx="284" cy="92" r="3.36" fill="#00CEC9"/><circle cx="300" cy="92" r="3.36" fill="#00CEC9"/><circle cx="308" cy="92" r="3.36" fill="#00CEC9"/><circle cx="52" cy="100" r="3.36" fill="#00CEC9"/><circle cx="60" cy="100" r="3.36" fill="#00CEC9"/><circle cx="84" cy="100" r="3.36" fill="#00CEC9"/><circle cx="92" cy="100" r="3.36" fill="#00CEC9"/><circle cx="100" cy="100" r="3.36" fill="#00CEC9"/><circle cx="116" cy="100" r="3.36" fill="#00CEC9"/><circle cx="132" cy="100" r="3.36" fill="#00CEC9"/><circle cx="156" cy="100" r="3.36" fill="#00CEC9"/><circle cx="164" cy="100" r="3.36" fill="#00CEC9"/><circle cx="196" cy="100" r="3.36" fill="#00CEC9"/><circle cx="204" cy="100" r="3.36" fill="#00CEC9"/><circle cx="212" cy="100" r="3.36" fill="#00CEC9"/><circle cx="220" cy="100" r="3.36" fill="#00CEC9"/><circle cx="228" cy="100" r="3.36" fill="#00CEC9"/><circle cx="260" cy="100" r="3.36" fill="#00CEC9"/><circle cx="268" cy="100" r="3.36" fill="#00CEC9"/><circle cx="300" cy="100" r="3.36" fill="#00CEC9"/><circle cx="316" cy="100" r="3.36" fill="#00CEC9"/><circle cx="324" cy="100" r="3.36" fill="#00CEC9"/><circle cx="332" cy="100" r="3.36" fill="#00CEC9"/><circle cx="340" cy="100" r="3.36" fill="#00CEC9"/><circle cx="356" cy="100" r="3.36" fill="#00CEC9"/><circle cx="36" cy="108" r="3.36" fill="#00CEC9"/><circle cx="44" cy="108" r="3.36" fill="#00CEC9"/><circle cx="52" cy="108" r="3.36" fill="#00CEC9"/><circle cx="68" cy="108" r="3.36" fill="#00CEC9"/><circle cx="100" cy="108" r="3.36" fill="#00CEC9"/><circle cx="124" cy="108" r="3.36" fill="#00CEC9"/><circle cx="132" cy="108" r="3.36" fill="#00CEC9"/><circle cx="140" cy="108" r="3.36" fill="#00CEC9"/><circle cx="156" cy="108" r="3.36" fill="#00CEC9"/><circle cx="172" cy="108" r="3.36" fill="#00CEC9"/><circle cx="196" cy="108" r="3.36" fill="#00CEC9"/><circle cx="212" cy="108" r="3.36" fill="#00CEC9"/><circle cx="252" cy="108" r="3.36" fill="#00CEC9"/><circle cx="260" cy="108" r="3.36" fill="#00CEC9"/><circle cx="268" cy="108" r="3.36" fill="#00CEC9"/><circle cx="276" cy="108" r="3.36" fill="#00CEC9"/><circle cx="292" cy="108" r="3.36" fill="#00CEC9"/><circle cx="300" cy="108" r="3.36" fill="#00CEC9"/><circle cx="324" cy="108" r="3.36" fill="#00CEC9"/><circle cx="332" cy="108" r="3.36" fill="#00CEC9"/><circle cx="364" cy="108" r="3.36" fill="#00CEC9"/><circle cx="388" cy="108" r="3.36" fill="#00CEC9"/><circle cx="36" cy="116" r="3.36" fill="#00CEC9"/><circle cx="44" cy="116" r="3.36" fill="#00CEC9"/><circle cx="52" cy="116" r="3.36" fill="#00CEC9"/><circle cx="76" cy="116" r="3.36" fill="#00CEC9"/><circle cx="84" cy="116" r="3.36" fill="#00CEC9"/><circle cx="92" cy="116" r="3.36" fill="#00CEC9"/><circle cx="100" cy="116" r="3.36" fill="#00CEC9"/><circle cx="108" cy="116" r="3.36" fill="#00CEC9"/><circle cx="124" cy="116" r="3.36" fill="#00CEC9"/><circle cx="140" cy="116" r="3.36" fill="#00CEC9"/><circle cx="156" cy="116" r="3.36" fill="#00CEC9"/><circle cx="164" cy="116" r="3.36" fill="#00CEC9"/><circle cx="188" cy="116" r="3.36" fill="#00CEC9"/><circle cx="196" cy="116" r="3.36" fill="#00CEC9"/><circle cx="212" cy="116" r="3.36" fill="#00CEC9"/><circle cx="220" cy="116" r="3.36" fill="#00CEC9"/><circle cx="236" cy="116" r="3.36" fill="#00CEC9"/><circle cx="252" cy="116" r="3.36" fill="#00CEC9"/><circle cx="260" cy="116" r="3.36" fill="#00CEC9"/><circle cx="276" cy="116" r="3.36" fill="#00CEC9"/><circle cx="284" cy="116" r="3.36" fill="#00CEC9"/><circle cx="308" cy="116" r="3.36" fill="#00CEC9"/><circle cx="316" cy="116" r="3.36" fill="#00CEC9"/><circle cx="348" cy="116" r="3.36" fill="#00CEC9"/><circle cx="356" cy="116" r="3.36" fill="#00CEC9"/><circle cx="372" cy="116" r="3.36" fill="#00CEC9"/><circle cx="380" cy="116" r="3.36" fill="#00CEC9"/><circle cx="388" cy="116" r="3.36" fill="#00CEC9"/><circle cx="36" cy="124" r="3.36" fill="#00CEC9"/><circle cx="52" cy="124" r="3.36" fill="#00CEC9"/><circle cx="68" cy="124" r="3.36" fill="#00CEC9"/><circle cx="92" cy="124" r="3.36" fill="#00CEC9"/><circle cx="100" cy="124" r="3.36" fill="#00CEC9"/><circle cx="108" cy="124" r="3.36" fill="#00CEC9"/><circle cx="124" cy="124" r="3.36" fill="#00CEC9"/><circle cx="132" cy="124" r="3.36" fill="#00CEC9"/><circle cx="156" cy="124" r="3.36" fill="#00CEC9"/><circle cx="180" cy="124" r="3.36" fill="#00CEC9"/><circle cx="188" cy="124" r="3.36" fill="#00CEC9"/><circle cx="196" cy="124" r="3.36" fill="#00CEC9"/><circle cx="204" cy="124" r="3.36" fill="#00CEC9"/><circle cx="212" cy="124" r="3.36" fill="#00CEC9"/><circle cx="236" cy="124" r="3.36" fill="#00CEC9"/><circle cx="244" cy="124" r="3.36" fill="#00CEC9"/><circle cx="260" cy="124" r="3.36" fill="#00CEC9"/><circle cx="284" cy="124" r="3.36" fill="#00CEC9"/><circle cx="292" cy="124" r="3.36" fill="#00CEC9"/><circle cx="300" cy="124" r="3.36" fill="#00CEC9"/><circle cx="316" cy="124" r="3.36" fill="#00CEC9"/><circle cx="332" cy="124" r="3.36" fill="#00CEC9"/><circle cx="348" cy="124" r="3.36" fill="#00CEC9"/><circle cx="364" cy="124" r="3.36" fill="#00CEC9"/><circle cx="60" cy="132" r="3.36" fill="#00CEC9"/><circle cx="76" cy="132" r="3.36" fill="#00CEC9"/><circle cx="84" cy="132" r="3.36" fill="#00CEC9"/><circle cx="124" cy="132" r="3.36" fill="#00CEC9"/><circle cx="140" cy="132" r="3.36" fill="#00CEC9"/><circle cx="156" cy="132" r="3.36" fill="#00CEC9"/><circle cx="172" cy="132" r="3.36" fill="#00CEC9"/><circle cx="180" cy="132" r="3.36" fill="#00CEC9"/><circle cx="188" cy="132" r="3.36" fill="#00CEC9"/><circle cx="196" cy="132" r="3.36" fill="#00CEC9"/><circle cx="212" cy="132" r="3.36" fill="#00CEC9"/><circle cx="236" cy="132" r="3.36" fill="#00CEC9"/><circle cx="244" cy="132" r="3.36" fill="#00CEC9"/><circle cx="252" cy="132" r="3.36" fill="#00CEC9"/><circle cx="260" cy="132" r="3.36" fill="#00CEC9"/><circle cx="268" cy="132" r="3.36" fill="#00CEC9"/><circle cx="284" cy="132" r="3.36" fill="#00CEC9"/><circle cx="300" cy="132" r="3.36" fill="#00CEC9"/><circle cx="308" cy="132" r="3.36" fill="#00CEC9"/><circle cx="316" cy="132" r="3.36" fill="#00CEC9"/><circle cx="348" cy="132" r="3.36" fill="#00CEC9"/><circle cx="364" cy="132" r="3.36" fill="#00CEC9"/><circle cx="36" cy="140" r="3.36" fill="#00CEC9"/><circle cx="76" cy="140" r="3.36" fill="#00CEC9"/><circle cx="92" cy="140" r="3.36" fill="#00CEC9"/><circle cx="100" cy="140" r="3.36" fill="#00CEC9"/><circle cx="108" cy="140" r="3.36" fill="#00CEC9"/><circle cx="132" cy="140" r="3.36" fill="#00CEC9"/><circle cx="140" cy="140" r="3.36" fill="#00CEC9"/><circle cx="148" cy="140" r="3.36" fill="#00CEC9"/><circle cx="156" cy="140" r="3.36" fill="#00CEC9"/><circle cx="164" cy="140" r="3.36" fill="#00CEC9"/><circle cx="172" cy="140" r="3.36" fill="#00CEC9"/><circle cx="196" cy="140" r="3.36" fill="#00CEC9"/><circle cx="204" cy="140" r="3.36" fill="#00CEC9"/><circle cx="212" cy="140" r="3.36" fill="#00CEC9"/><circle cx="236" cy="140" r="3.36" fill="#00CEC9"/><circle cx="244" cy="140" r="3.36" fill="#00CEC9"/><circle cx="252" cy="140" r="3.36" fill="#00CEC9"/><circle cx="292" cy="140" r="3.36" fill="#00CEC9"/><circle cx="300" cy="140" r="3.36" fill="#00CEC9"/><circle cx="332" cy="140" r="3.36" fill="#00CEC9"/><circle cx="340" cy="140" r="3.36" fill="#00CEC9"/><circle cx="348" cy="140" r="3.36" fill="#00CEC9"/><circle cx="356" cy="140" r="3.36" fill="#00CEC9"/><circle cx="364" cy="140" r="3.36" fill="#00CEC9"/><circle cx="372" cy="140" r="3.36" fill="#00CEC9"/><circle cx="44" cy="148" r="3.36" fill="#00CEC9"/><circle cx="60" cy="148" r="3.36" fill="#00CEC9"/><circle cx="84" cy="148" r="3.36" fill="#00CEC9"/><circle cx="92" cy="148" r="3.36" fill="#00CEC9"/><circle cx="108" cy="148" r="3.36" fill="#00CEC9"/><circle cx="124" cy="148" r="3.36" fill="#00CEC9"/><circle cx="132" cy="148" r="3.36" fill="#00CEC9"/><circle cx="148" cy="148" r="3.36" fill="#00CEC9"/><circle cx="164" cy="148" r="3.36" fill="#00CEC9"/><circle cx="180" cy="148" r="3.36" fill="#00CEC9"/><circle cx="196" cy="148" r="3.36" fill="#00CEC9"/><circle cx="204" cy="148" r="3.36" fill="#00CEC9"/><circle cx="228" cy="148" r="3.36" fill="#00CEC9"/><circle cx="236" cy="148" r="3.36" fill="#00CEC9"/><circle cx="244" cy="148" r="3.36" fill="#00CEC9"/><circle cx="252" cy="148" r="3.36" fill="#00CEC9"/><circle cx="276" cy="148" r="3.36" fill="#00CEC9"/><circle cx="340" cy="148" r="3.36" fill="#00CEC9"/><circle cx="356" cy="148" r="3.36" fill="#00CEC9"/><circle cx="52" cy="156" r="3.36" fill="#00CEC9"/><circle cx="60" cy="156" r="3.36" fill="#00CEC9"/><circle cx="68" cy="156" r="3.36" fill="#00CEC9"/><circle cx="100" cy="156" r="3.36" fill="#00CEC9"/><circle cx="108" cy="156" r="3.36" fill="#00CEC9"/><circle cx="124" cy="156" r="3.36" fill="#00CEC9"/><circle cx="132" cy="156" r="3.36" fill="#00CEC9"/><circle cx="164" cy="156" r="3.36" fill="#00CEC9"/><circle cx="188" cy="156" r="3.36" fill="#00CEC9"/><circle cx="204" cy="156" r="3.36" fill="#00CEC9"/><circle cx="212" cy="156" r="3.36" fill="#00CEC9"/><circle cx="236" cy="156" r="3.36" fill="#00CEC9"/><circle cx="252" cy="156" r="3.36" fill="#00CEC9"/><circle cx="260" cy="156" r="3.36" fill="#00CEC9"/><circle cx="268" cy="156" r="3.36" fill="#00CEC9"/><circle cx="292" cy="156" r="3.36" fill="#00CEC9"/><circle cx="300" cy="156" r="3.36" fill="#00CEC9"/><circle cx="324" cy="156" r="3.36" fill="#00CEC9"/><circle cx="332" cy="156" r="3.36" fill="#00CEC9"/><circle cx="348" cy="156" r="3.36" fill="#00CEC9"/><circle cx="356" cy="156" r="3.36" fill="#00CEC9"/><circle cx="364" cy="156" r="3.36" fill="#00CEC9"/><circle cx="372" cy="156" r="3.36" fill="#00CEC9"/><circle cx="36" cy="164" r="3.36" fill="#00CEC9"/><circle cx="60" cy="164" r="3.36" fill="#00CEC9"/><circle cx="68" cy="164" r="3.36" fill="#00CEC9"/><circle cx="84" cy="164" r="3.36" fill="#00CEC9"/><circle cx="116" cy="164" r="3.36" fill="#00CEC9"/><circle cx="140" cy="164" r="3.36" fill="#00CEC9"/><circle cx="156" cy="164" r="3.36" fill="#00CEC9"/><circle cx="164" cy="164" r="3.36" fill="#00CEC9"/><circle cx="204" cy="164" r="3.36" fill="#00CEC9"/><circle cx="220" cy="164" r="3.36" fill="#00CEC9"/><circle cx="228" cy="164" r="3.36" fill="#00CEC9"/><circle cx="236" cy="164" r="3.36" fill="#00CEC9"/><circle cx="268" cy="164" r="3.36" fill="#00CEC9"/><circle cx="276" cy="164" r="3.36" fill="#00CEC9"/><circle cx="292" cy="164" r="3.36" fill="#00CEC9"/><circle cx="316" cy="164" r="3.36" fill="#00CEC9"/><circle cx="324" cy="164" r="3.36" fill="#00CEC9"/><circle cx="332" cy="164" r="3.36" fill="#00CEC9"/><circle cx="372" cy="164" r="3.36" fill="#00CEC9"/><circle cx="380" cy="164" r="3.36" fill="#00CEC9"/><circle cx="388" cy="164" r="3.36" fill="#00CEC9"/><circle cx="36" cy="172" r="3.36" fill="#00CEC9"/><circle cx="52" cy="172" r="3.36" fill="#00CEC9"/><circle cx="76" cy="172" r="3.36" fill="#00CEC9"/><circle cx="108" cy="172" r="3.36" fill="#00CEC9"/><circle cx="116" cy="172" r="3.36" fill="#00CEC9"/><circle cx="164" cy="172" r="3.36" fill="#00CEC9"/><circle cx="172" cy="172" r="3.36" fill="#00CEC9"/><circle cx="188" cy="172" r="3.36" fill="#00CEC9"/><circle cx="196" cy="172" r="3.36" fill="#00CEC9"/><circle cx="204" cy="172" r="3.36" fill="#00CEC9"/><circle cx="212" cy="172" r="3.36" fill="#00CEC9"/><circle cx="220" cy="172" r="3.36" fill="#00CEC9"/><circle cx="236" cy="172" r="3.36" fill="#00CEC9"/><circle cx="244" cy="172" r="3.36" fill="#00CEC9"/><circle cx="252" cy="172" r="3.36" fill="#00CEC9"/><circle cx="260" cy="172" r="3.36" fill="#00CEC9"/><circle cx="268" cy="172" r="3.36" fill="#00CEC9"/><circle cx="276" cy="172" r="3.36" fill="#00CEC9"/><circle cx="300" cy="172" r="3.36" fill="#00CEC9"/><circle cx="308" cy="172" r="3.36" fill="#00CEC9"/><circle cx="348" cy="172" r="3.36" fill="#00CEC9"/><circle cx="356" cy="172" r="3.36" fill="#00CEC9"/><circle cx="364" cy="172" r="3.36" fill="#00CEC9"/><circle cx="380" cy="172" r="3.36" fill="#00CEC9"/><circle cx="388" cy="172" r="3.36" fill="#00CEC9"/><circle cx="36" cy="180" r="3.36" fill="#00CEC9"/><circle cx="44" cy="180" r="3.36" fill="#00CEC9"/><circle cx="52" cy="180" r="3.36" fill="#00CEC9"/><circle cx="60" cy="180" r="3.36" fill="#00CEC9"/><circle cx="68" cy="180" r="3.36" fill="#00CEC9"/><circle cx="84" cy="180" r="3.36" fill="#00CEC9"/><circle cx="100" cy="180" r="3.36" fill="#00CEC9"/><circle cx="124" cy="180" r="3.36" fill="#00CEC9"/><circle cx="132" cy="180" r="3.36" fill="#00CEC9"/><circle cx="156" cy="180" r="3.36" fill="#00CEC9"/><circle cx="204" cy="180" r="3.36" fill="#00CEC9"/><circle cx="236" cy="180" r="3.36" fill="#00CEC9"/><circle cx="244" cy="180" r="3.36" fill="#00CEC9"/><circle cx="252" cy="180" r="3.36" fill="#00CEC9"/><circle cx="276" cy="180" r="3.36" fill="#00CEC9"/><circle cx="284" cy="180" r="3.36" fill="#00CEC9"/><circle cx="292" cy="180" r="3.36" fill="#00CEC9"/><circle cx="308" cy="180" r="3.36" fill="#00CEC9"/><circle cx="316" cy="180" r="3.36" fill="#00CEC9"/><circle cx="324" cy="180" r="3.36" fill="#00CEC9"/><circle cx="340" cy="180" r="3.36" fill="#00CEC9"/><circle cx="364" cy="180" r="3.36" fill="#00CEC9"/><circle cx="380" cy="180" r="3.36" fill="#00CEC9"/><circle cx="76" cy="188" r="3.36" fill="#00CEC9"/><circle cx="108" cy="188" r="3.36" fill="#00CEC9"/><circle cx="132" cy="188" r="3.36" fill="#00CEC9"/><circle cx="140" cy="188" r="3.36" fill="#00CEC9"/><circle cx="172" cy="188" r="3.36" fill="#00CEC9"/><circle cx="196" cy="188" r="3.36" fill="#00CEC9"/><circle cx="212" cy="188" r="3.36" fill="#00CEC9"/><circle cx="220" cy="188" r="3.36" fill="#00CEC9"/><circle cx="228" cy="188" r="3.36" fill="#00CEC9"/><circle cx="244" cy="188" r="3.36" fill="#00CEC9"/><circle cx="252" cy="188" r="3.36" fill="#00CEC9"/><circle cx="260" cy="188" r="3.36" fill="#00CEC9"/><circle cx="268" cy="188" r="3.36" fill="#00CEC9"/><circle cx="300" cy="188" r="3.36" fill="#00CEC9"/><circle cx="308" cy="188" r="3.36" fill="#00CEC9"/><circle cx="332" cy="188" r="3.36" fill="#00CEC9"/><circle cx="356" cy="188" r="3.36" fill="#00CEC9"/><circle cx="52" cy="196" r="3.36" fill="#00CEC9"/><circle cx="60" cy="196" r="3.36" fill="#00CEC9"/><circle cx="68" cy="196" r="3.36" fill="#00CEC9"/><circle cx="76" cy="196" r="3.36" fill="#00CEC9"/><circle cx="84" cy="196" r="3.36" fill="#00CEC9"/><circle cx="92" cy="196" r="3.36" fill="#00CEC9"/><circle cx="100" cy="196" r="3.36" fill="#00CEC9"/><circle cx="108" cy="196" r="3.36" fill="#00CEC9"/><circle cx="132" cy="196" r="3.36" fill="#00CEC9"/><circle cx="148" cy="196" r="3.36" fill="#00CEC9"/><circle cx="156" cy="196" r="3.36" fill="#00CEC9"/><circle cx="188" cy="196" r="3.36" fill="#00CEC9"/><circle cx="196" cy="196" r="3.36" fill="#00CEC9"/><circle cx="204" cy="196" r="3.36" fill="#00CEC9"/><circle cx="212" cy="196" r="3.36" fill="#00CEC9"/><circle cx="220" cy="196" r="3.36" fill="#00CEC9"/><circle cx="228" cy="196" r="3.36" fill="#00CEC9"/><circle cx="252" cy="196" r="3.36" fill="#00CEC9"/><circle cx="260" cy="196" r="3.36" fill="#00CEC9"/><circle cx="268" cy="196" r="3.36" fill="#00CEC9"/><circle cx="300" cy="196" r="3.36" fill="#00CEC9"/><circle cx="308" cy="196" r="3.36" fill="#00CEC9"/><circle cx="324" cy="196" r="3.36" fill="#00CEC9"/><circle cx="332" cy="196" r="3.36" fill="#00CEC9"/><circle cx="340" cy="196" r="3.36" fill="#00CEC9"/><circle cx="348" cy="196" r="3.36" fill="#00CEC9"/><circle cx="356" cy="196" r="3.36" fill="#00CEC9"/><circle cx="372" cy="196" r="3.36" fill="#00CEC9"/><circle cx="388" cy="196" r="3.36" fill="#00CEC9"/><circle cx="36" cy="204" r="3.36" fill="#00CEC9"/><circle cx="44" cy="204" r="3.36" fill="#00CEC9"/><circle cx="52" cy="204" r="3.36" fill="#00CEC9"/><circle cx="60" cy="204" r="3.36" fill="#00CEC9"/><circle cx="68" cy="204" r="3.36" fill="#00CEC9"/><circle cx="100" cy="204" r="3.36" fill="#00CEC9"/><circle cx="108" cy="204" r="3.36" fill="#00CEC9"/><circle cx="148" cy="204" r="3.36" fill="#00CEC9"/><circle cx="156" cy="204" r="3.36" fill="#00CEC9"/><circle cx="172" cy="204" r="3.36" fill="#00CEC9"/><circle cx="196" cy="204" r="3.36" fill="#00CEC9"/><circle cx="228" cy="204" r="3.36" fill="#00CEC9"/><circle cx="244" cy="204" r="3.36" fill="#00CEC9"/><circle cx="252" cy="204" r="3.36" fill="#00CEC9"/><circle cx="276" cy="204" r="3.36" fill="#00CEC9"/><circle cx="316" cy="204" r="3.36" fill="#00CEC9"/><circle cx="324" cy="204" r="3.36" fill="#00CEC9"/><circle cx="356" cy="204" r="3.36" fill="#00CEC9"/><circle cx="364" cy="204" r="3.36" fill="#00CEC9"/><circle cx="388" cy="204" r="3.36" fill="#00CEC9"/><circle cx="52" cy="212" r="3.36" fill="#00CEC9"/><circle cx="60" cy="212" r="3.36" fill="#00CEC9"/><circle cx="68" cy="212" r="3.36" fill="#00CEC9"/><circle cx="84" cy="212" r="3.36" fill="#00CEC9"/><circle cx="100" cy="212" r="3.36" fill="#00CEC9"/><circle cx="108" cy="212" r="3.36" fill="#00CEC9"/><circle cx="132" cy="212" r="3.36" fill="#00CEC9"/><circle cx="140" cy="212" r="3.36" fill="#00CEC9"/><circle cx="156" cy="212" r="3.36" fill="#00CEC9"/><circle cx="164" cy="212" r="3.36" fill="#00CEC9"/><circle cx="172" cy="212" r="3.36" fill="#00CEC9"/><circle cx="180" cy="212" r="3.36" fill="#00CEC9"/><circle cx="188" cy="212" r="3.36" fill="#00CEC9"/><circle cx="196" cy="212" r="3.36" fill="#00CEC9"/><circle cx="212" cy="212" r="3.36" fill="#00CEC9"/><circle cx="228" cy="212" r="3.36" fill="#00CEC9"/><circle cx="236" cy="212" r="3.36" fill="#00CEC9"/><circle cx="252" cy="212" r="3.36" fill="#00CEC9"/><circle cx="284" cy="212" r="3.36" fill="#00CEC9"/><circle cx="308" cy="212" r="3.36" fill="#00CEC9"/><circle cx="316" cy="212" r="3.36" fill="#00CEC9"/><circle cx="324" cy="212" r="3.36" fill="#00CEC9"/><circle cx="340" cy="212" r="3.36" fill="#00CEC9"/><circle cx="356" cy="212" r="3.36" fill="#00CEC9"/><circle cx="372" cy="212" r="3.36" fill="#00CEC9"/><circle cx="380" cy="212" r="3.36" fill="#00CEC9"/><circle cx="388" cy="212" r="3.36" fill="#00CEC9"/><circle cx="36" cy="220" r="3.36" fill="#00CEC9"/><circle cx="60" cy="220" r="3.36" fill="#00CEC9"/><circle cx="68" cy="220" r="3.36" fill="#00CEC9"/><circle cx="100" cy="220" r="3.36" fill="#00CEC9"/><circle cx="116" cy="220" r="3.36" fill="#00CEC9"/><circle cx="124" cy="220" r="3.36" fill="#00CEC9"/><circle cx="140" cy="220" r="3.36" fill="#00CEC9"/><circle cx="156" cy="220" r="3.36" fill="#00CEC9"/><circle cx="180" cy="220" r="3.36" fill="#00CEC9"/><circle cx="188" cy="220" r="3.36" fill="#00CEC9"/><circle cx="196" cy="220" r="3.36" fill="#00CEC9"/><circle cx="228" cy="220" r="3.36" fill="#00CEC9"/><circle cx="236" cy="220" r="3.36" fill="#00CEC9"/><circle cx="244" cy="220" r="3.36" fill="#00CEC9"/><circle cx="292" cy="220" r="3.36" fill="#00CEC9"/><circle cx="300" cy="220" r="3.36" fill="#00CEC9"/><circle cx="324" cy="220" r="3.36" fill="#00CEC9"/><circle cx="356" cy="220" r="3.36" fill="#00CEC9"/><circle cx="364" cy="220" r="3.36" fill="#00CEC9"/><circle cx="380" cy="220" r="3.36" fill="#00CEC9"/><circle cx="388" cy="220" r="3.36" fill="#00CEC9"/><circle cx="36" cy="228" r="3.36" fill="#00CEC9"/><circle cx="52" cy="228" r="3.36" fill="#00CEC9"/><circle cx="68" cy="228" r="3.36" fill="#00CEC9"/><circle cx="76" cy="228" r="3.36" fill="#00CEC9"/><circle cx="84" cy="228" r="3.36" fill="#00CEC9"/><circle cx="92" cy="228" r="3.36" fill="#00CEC9"/><circle cx="100" cy="228" r="3.36" fill="#00CEC9"/><circle cx="108" cy="228" r="3.36" fill="#00CEC9"/><circle cx="116" cy="228" r="3.36" fill="#00CEC9"/><circle cx="124" cy="228" r="3.36" fill="#00CEC9"/><circle cx="132" cy="228" r="3.36" fill="#00CEC9"/><circle cx="148" cy="228" r="3.36" fill="#00CEC9"/><circle cx="172" cy="228" r="3.36" fill="#00CEC9"/><circle cx="180" cy="228" r="3.36" fill="#00CEC9"/><circle cx="188" cy="228" r="3.36" fill="#00CEC9"/><circle cx="196" cy="228" r="3.36" fill="#00CEC9"/><circle cx="204" cy="228" r="3.36" fill="#00CEC9"/><circle cx="212" cy="228" r="3.36" fill="#00CEC9"/><circle cx="220" cy="228" r="3.36" fill="#00CEC9"/><circle cx="228" cy="228" r="3.36" fill="#00CEC9"/><circle cx="252" cy="228" r="3.36" fill="#00CEC9"/><circle cx="268" cy="228" r="3.36" fill="#00CEC9"/><circle cx="284" cy="228" r="3.36" fill="#00CEC9"/><circle cx="300" cy="228" r="3.36" fill="#00CEC9"/><circle cx="308" cy="228" r="3.36" fill="#00CEC9"/><circle cx="324" cy="228" r="3.36" fill="#00CEC9"/><circle cx="332" cy="228" r="3.36" fill="#00CEC9"/><circle cx="340" cy="228" r="3.36" fill="#00CEC9"/><circle cx="348" cy="228" r="3.36" fill="#00CEC9"/><circle cx="356" cy="228" r="3.36" fill="#00CEC9"/><circle cx="364" cy="228" r="3.36" fill="#00CEC9"/><circle cx="380" cy="228" r="3.36" fill="#00CEC9"/><circle cx="388" cy="228" r="3.36" fill="#00CEC9"/><circle cx="36" cy="236" r="3.36" fill="#00CEC9"/><circle cx="68" cy="236" r="3.36" fill="#00CEC9"/><circle cx="92" cy="236" r="3.36" fill="#00CEC9"/><circle cx="148" cy="236" r="3.36" fill="#00CEC9"/><circle cx="164" cy="236" r="3.36" fill="#00CEC9"/><circle cx="172" cy="236" r="3.36" fill="#00CEC9"/><circle cx="204" cy="236" r="3.36" fill="#00CEC9"/><circle cx="236" cy="236" r="3.36" fill="#00CEC9"/><circle cx="244" cy="236" r="3.36" fill="#00CEC9"/><circle cx="268" cy="236" r="3.36" fill="#00CEC9"/><circle cx="276" cy="236" r="3.36" fill="#00CEC9"/><circle cx="292" cy="236" r="3.36" fill="#00CEC9"/><circle cx="300" cy="236" r="3.36" fill="#00CEC9"/><circle cx="332" cy="236" r="3.36" fill="#00CEC9"/><circle cx="348" cy="236" r="3.36" fill="#00CEC9"/><circle cx="364" cy="236" r="3.36" fill="#00CEC9"/><circle cx="372" cy="236" r="3.36" fill="#00CEC9"/><circle cx="36" cy="244" r="3.36" fill="#00CEC9"/><circle cx="60" cy="244" r="3.36" fill="#00CEC9"/><circle cx="68" cy="244" r="3.36" fill="#00CEC9"/><circle cx="84" cy="244" r="3.36" fill="#00CEC9"/><circle cx="108" cy="244" r="3.36" fill="#00CEC9"/><circle cx="124" cy="244" r="3.36" fill="#00CEC9"/><circle cx="156" cy="244" r="3.36" fill="#00CEC9"/><circle cx="172" cy="244" r="3.36" fill="#00CEC9"/><circle cx="180" cy="244" r="3.36" fill="#00CEC9"/><circle cx="188" cy="244" r="3.36" fill="#00CEC9"/><circle cx="204" cy="244" r="3.36" fill="#00CEC9"/><circle cx="212" cy="244" r="3.36" fill="#00CEC9"/><circle cx="220" cy="244" r="3.36" fill="#00CEC9"/><circle cx="228" cy="244" r="3.36" fill="#00CEC9"/><circle cx="236" cy="244" r="3.36" fill="#00CEC9"/><circle cx="244" cy="244" r="3.36" fill="#00CEC9"/><circle cx="252" cy="244" r="3.36" fill="#00CEC9"/><circle cx="260" cy="244" r="3.36" fill="#00CEC9"/><circle cx="268" cy="244" r="3.36" fill="#00CEC9"/><circle cx="276" cy="244" r="3.36" fill="#00CEC9"/><circle cx="284" cy="244" r="3.36" fill="#00CEC9"/><circle cx="316" cy="244" r="3.36" fill="#00CEC9"/><circle cx="348" cy="244" r="3.36" fill="#00CEC9"/><circle cx="364" cy="244" r="3.36" fill="#00CEC9"/><circle cx="36" cy="252" r="3.36" fill="#00CEC9"/><circle cx="92" cy="252" r="3.36" fill="#00CEC9"/><circle cx="100" cy="252" r="3.36" fill="#00CEC9"/><circle cx="108" cy="252" r="3.36" fill="#00CEC9"/><circle cx="124" cy="252" r="3.36" fill="#00CEC9"/><circle cx="132" cy="252" r="3.36" fill="#00CEC9"/><circle cx="148" cy="252" r="3.36" fill="#00CEC9"/><circle cx="164" cy="252" r="3.36" fill="#00CEC9"/><circle cx="180" cy="252" r="3.36" fill="#00CEC9"/><circle cx="188" cy="252" r="3.36" fill="#00CEC9"/><circle cx="196" cy="252" r="3.36" fill="#00CEC9"/><circle cx="204" cy="252" r="3.36" fill="#00CEC9"/><circle cx="212" cy="252" r="3.36" fill="#00CEC9"/><circle cx="220" cy="252" r="3.36" fill="#00CEC9"/><circle cx="228" cy="252" r="3.36" fill="#00CEC9"/><circle cx="252" cy="252" r="3.36" fill="#00CEC9"/><circle cx="260" cy="252" r="3.36" fill="#00CEC9"/><circle cx="292" cy="252" r="3.36" fill="#00CEC9"/><circle cx="308" cy="252" r="3.36" fill="#00CEC9"/><circle cx="316" cy="252" r="3.36" fill="#00CEC9"/><circle cx="340" cy="252" r="3.36" fill="#00CEC9"/><circle cx="356" cy="252" r="3.36" fill="#00CEC9"/><circle cx="364" cy="252" r="3.36" fill="#00CEC9"/><circle cx="372" cy="252" r="3.36" fill="#00CEC9"/><circle cx="380" cy="252" r="3.36" fill="#00CEC9"/><circle cx="388" cy="252" r="3.36" fill="#00CEC9"/><circle cx="36" cy="260" r="3.36" fill="#00CEC9"/><circle cx="52" cy="260" r="3.36" fill="#00CEC9"/><circle cx="68" cy="260" r="3.36" fill="#00CEC9"/><circle cx="76" cy="260" r="3.36" fill="#00CEC9"/><circle cx="84" cy="260" r="3.36" fill="#00CEC9"/><circle cx="108" cy="260" r="3.36" fill="#00CEC9"/><circle cx="140" cy="260" r="3.36" fill="#00CEC9"/><circle cx="148" cy="260" r="3.36" fill="#00CEC9"/><circle cx="156" cy="260" r="3.36" fill="#00CEC9"/><circle cx="172" cy="260" r="3.36" fill="#00CEC9"/><circle cx="212" cy="260" r="3.36" fill="#00CEC9"/><circle cx="220" cy="260" r="3.36" fill="#00CEC9"/><circle cx="228" cy="260" r="3.36" fill="#00CEC9"/><circle cx="236" cy="260" r="3.36" fill="#00CEC9"/><circle cx="244" cy="260" r="3.36" fill="#00CEC9"/><circle cx="252" cy="260" r="3.36" fill="#00CEC9"/><circle cx="268" cy="260" r="3.36" fill="#00CEC9"/><circle cx="292" cy="260" r="3.36" fill="#00CEC9"/><circle cx="300" cy="260" r="3.36" fill="#00CEC9"/><circle cx="308" cy="260" r="3.36" fill="#00CEC9"/><circle cx="316" cy="260" r="3.36" fill="#00CEC9"/><circle cx="332" cy="260" r="3.36" fill="#00CEC9"/><circle cx="348" cy="260" r="3.36" fill="#00CEC9"/><circle cx="356" cy="260" r="3.36" fill="#00CEC9"/><circle cx="364" cy="260" r="3.36" fill="#00CEC9"/><circle cx="372" cy="260" r="3.36" fill="#00CEC9"/><circle cx="388" cy="260" r="3.36" fill="#00CEC9"/><circle cx="60" cy="268" r="3.36" fill="#00CEC9"/><circle cx="68" cy="268" r="3.36" fill="#00CEC9"/><circle cx="76" cy="268" r="3.36" fill="#00CEC9"/><circle cx="92" cy="268" r="3.36" fill="#00CEC9"/><circle cx="108" cy="268" r="3.36" fill="#00CEC9"/><circle cx="116" cy="268" r="3.36" fill="#00CEC9"/><circle cx="132" cy="268" r="3.36" fill="#00CEC9"/><circle cx="196" cy="268" r="3.36" fill="#00CEC9"/><circle cx="204" cy="268" r="3.36" fill="#00CEC9"/><circle cx="220" cy="268" r="3.36" fill="#00CEC9"/><circle cx="244" cy="268" r="3.36" fill="#00CEC9"/><circle cx="276" cy="268" r="3.36" fill="#00CEC9"/><circle cx="300" cy="268" r="3.36" fill="#00CEC9"/><circle cx="308" cy="268" r="3.36" fill="#00CEC9"/><circle cx="316" cy="268" r="3.36" fill="#00CEC9"/><circle cx="324" cy="268" r="3.36" fill="#00CEC9"/><circle cx="340" cy="268" r="3.36" fill="#00CEC9"/><circle cx="348" cy="268" r="3.36" fill="#00CEC9"/><circle cx="356" cy="268" r="3.36" fill="#00CEC9"/><circle cx="380" cy="268" r="3.36" fill="#00CEC9"/><circle cx="388" cy="268" r="3.36" fill="#00CEC9"/><circle cx="36" cy="276" r="3.36" fill="#00CEC9"/><circle cx="44" cy="276" r="3.36" fill="#00CEC9"/><circle cx="60" cy="276" r="3.36" fill="#00CEC9"/><circle cx="76" cy="276" r="3.36" fill="#00CEC9"/><circle cx="84" cy="276" r="3.36" fill="#00CEC9"/><circle cx="92" cy="276" r="3.36" fill="#00CEC9"/><circle cx="116" cy="276" r="3.36" fill="#00CEC9"/><circle cx="124" cy="276" r="3.36" fill="#00CEC9"/><circle cx="140" cy="276" r="3.36" fill="#00CEC9"/><circle cx="164" cy="276" r="3.36" fill="#00CEC9"/><circle cx="172" cy="276" r="3.36" fill="#00CEC9"/><circle cx="180" cy="276" r="3.36" fill="#00CEC9"/><circle cx="204" cy="276" r="3.36" fill="#00CEC9"/><circle cx="212" cy="276" r="3.36" fill="#00CEC9"/><circle cx="220" cy="276" r="3.36" fill="#00CEC9"/><circle cx="252" cy="276" r="3.36" fill="#00CEC9"/><circle cx="292" cy="276" r="3.36" fill="#00CEC9"/><circle cx="308" cy="276" r="3.36" fill="#00CEC9"/><circle cx="316" cy="276" r="3.36" fill="#00CEC9"/><circle cx="324" cy="276" r="3.36" fill="#00CEC9"/><circle cx="332" cy="276" r="3.36" fill="#00CEC9"/><circle cx="348" cy="276" r="3.36" fill="#00CEC9"/><circle cx="380" cy="276" r="3.36" fill="#00CEC9"/><circle cx="44" cy="284" r="3.36" fill="#00CEC9"/><circle cx="60" cy="284" r="3.36" fill="#00CEC9"/><circle cx="68" cy="284" r="3.36" fill="#00CEC9"/><circle cx="76" cy="284" r="3.36" fill="#00CEC9"/><circle cx="92" cy="284" r="3.36" fill="#00CEC9"/><circle cx="124" cy="284" r="3.36" fill="#00CEC9"/><circle cx="164" cy="284" r="3.36" fill="#00CEC9"/><circle cx="188" cy="284" r="3.36" fill="#00CEC9"/><circle cx="196" cy="284" r="3.36" fill="#00CEC9"/><circle cx="220" cy="284" r="3.36" fill="#00CEC9"/><circle cx="228" cy="284" r="3.36" fill="#00CEC9"/><circle cx="236" cy="284" r="3.36" fill="#00CEC9"/><circle cx="252" cy="284" r="3.36" fill="#00CEC9"/><circle cx="324" cy="284" r="3.36" fill="#00CEC9"/><circle cx="348" cy="284" r="3.36" fill="#00CEC9"/><circle cx="388" cy="284" r="3.36" fill="#00CEC9"/><circle cx="36" cy="292" r="3.36" fill="#00CEC9"/><circle cx="44" cy="292" r="3.36" fill="#00CEC9"/><circle cx="76" cy="292" r="3.36" fill="#00CEC9"/><circle cx="84" cy="292" r="3.36" fill="#00CEC9"/><circle cx="124" cy="292" r="3.36" fill="#00CEC9"/><circle cx="140" cy="292" r="3.36" fill="#00CEC9"/><circle cx="148" cy="292" r="3.36" fill="#00CEC9"/><circle cx="172" cy="292" r="3.36" fill="#00CEC9"/><circle cx="188" cy="292" r="3.36" fill="#00CEC9"/><circle cx="204" cy="292" r="3.36" fill="#00CEC9"/><circle cx="220" cy="292" r="3.36" fill="#00CEC9"/><circle cx="228" cy="292" r="3.36" fill="#00CEC9"/><circle cx="260" cy="292" r="3.36" fill="#00CEC9"/><circle cx="300" cy="292" r="3.36" fill="#00CEC9"/><circle cx="324" cy="292" r="3.36" fill="#00CEC9"/><circle cx="332" cy="292" r="3.36" fill="#00CEC9"/><circle cx="340" cy="292" r="3.36" fill="#00CEC9"/><circle cx="372" cy="292" r="3.36" fill="#00CEC9"/><circle cx="44" cy="300" r="3.36" fill="#00CEC9"/><circle cx="52" cy="300" r="3.36" fill="#00CEC9"/><circle cx="60" cy="300" r="3.36" fill="#00CEC9"/><circle cx="92" cy="300" r="3.36" fill="#00CEC9"/><circle cx="140" cy="300" r="3.36" fill="#00CEC9"/><circle cx="164" cy="300" r="3.36" fill="#00CEC9"/><circle cx="172" cy="300" r="3.36" fill="#00CEC9"/><circle cx="180" cy="300" r="3.36" fill="#00CEC9"/><circle cx="212" cy="300" r="3.36" fill="#00CEC9"/><circle cx="268" cy="300" r="3.36" fill="#00CEC9"/><circle cx="276" cy="300" r="3.36" fill="#00CEC9"/><circle cx="284" cy="300" r="3.36" fill="#00CEC9"/><circle cx="292" cy="300" r="3.36" fill="#00CEC9"/><circle cx="324" cy="300" r="3.36" fill="#00CEC9"/><circle cx="332" cy="300" r="3.36" fill="#00CEC9"/><circle cx="364" cy="300" r="3.36" fill="#00CEC9"/><circle cx="372" cy="300" r="3.36" fill="#00CEC9"/><circle cx="380" cy="300" r="3.36" fill="#00CEC9"/><circle cx="388" cy="300" r="3.36" fill="#00CEC9"/><circle cx="68" cy="308" r="3.36" fill="#00CEC9"/><circle cx="84" cy="308" r="3.36" fill="#00CEC9"/><circle cx="100" cy="308" r="3.36" fill="#00CEC9"/><circle cx="108" cy="308" r="3.36" fill="#00CEC9"/><circle cx="116" cy="308" r="3.36" fill="#00CEC9"/><circle cx="148" cy="308" r="3.36" fill="#00CEC9"/><circle cx="164" cy="308" r="3.36" fill="#00CEC9"/><circle cx="188" cy="308" r="3.36" fill="#00CEC9"/><circle cx="196" cy="308" r="3.36" fill="#00CEC9"/><circle cx="212" cy="308" r="3.36" fill="#00CEC9"/><circle cx="220" cy="308" r="3.36" fill="#00CEC9"/><circle cx="236" cy="308" r="3.36" fill="#00CEC9"/><circle cx="244" cy="308" r="3.36" fill="#00CEC9"/><circle cx="252" cy="308" r="3.36" fill="#00CEC9"/><circle cx="276" cy="308" r="3.36" fill="#00CEC9"/><circle cx="284" cy="308" r="3.36" fill="#00CEC9"/><circle cx="308" cy="308" r="3.36" fill="#00CEC9"/><circle cx="324" cy="308" r="3.36" fill="#00CEC9"/><circle cx="332" cy="308" r="3.36" fill="#00CEC9"/><circle cx="340" cy="308" r="3.36" fill="#00CEC9"/><circle cx="348" cy="308" r="3.36" fill="#00CEC9"/><circle cx="364" cy="308" r="3.36" fill="#00CEC9"/><circle cx="380" cy="308" r="3.36" fill="#00CEC9"/><circle cx="388" cy="308" r="3.36" fill="#00CEC9"/><circle cx="44" cy="316" r="3.36" fill="#00CEC9"/><circle cx="52" cy="316" r="3.36" fill="#00CEC9"/><circle cx="60" cy="316" r="3.36" fill="#00CEC9"/><circle cx="68" cy="316" r="3.36" fill="#00CEC9"/><circle cx="108" cy="316" r="3.36" fill="#00CEC9"/><circle cx="116" cy="316" r="3.36" fill="#00CEC9"/><circle cx="124" cy="316" r="3.36" fill="#00CEC9"/><circle cx="140" cy="316" r="3.36" fill="#00CEC9"/><circle cx="148" cy="316" r="3.36" fill="#00CEC9"/><circle cx="172" cy="316" r="3.36" fill="#00CEC9"/><circle cx="196" cy="316" r="3.36" fill="#00CEC9"/><circle cx="228" cy="316" r="3.36" fill="#00CEC9"/><circle cx="236" cy="316" r="3.36" fill="#00CEC9"/><circle cx="252" cy="316" r="3.36" fill="#00CEC9"/><circle cx="260" cy="316" r="3.36" fill="#00CEC9"/><circle cx="276" cy="316" r="3.36" fill="#00CEC9"/><circle cx="284" cy="316" r="3.36" fill="#00CEC9"/><circle cx="292" cy="316" r="3.36" fill="#00CEC9"/><circle cx="308" cy="316" r="3.36" fill="#00CEC9"/><circle cx="316" cy="316" r="3.36" fill="#00CEC9"/><circle cx="324" cy="316" r="3.36" fill="#00CEC9"/><circle cx="332" cy="316" r="3.36" fill="#00CEC9"/><circle cx="340" cy="316" r="3.36" fill="#00CEC9"/><circle cx="348" cy="316" r="3.36" fill="#00CEC9"/><circle cx="356" cy="316" r="3.36" fill="#00CEC9"/><circle cx="364" cy="316" r="3.36" fill="#00CEC9"/><circle cx="388" cy="316" r="3.36" fill="#00CEC9"/><circle cx="36" cy="324" r="3.36" fill="#00CEC9"/><circle cx="60" cy="324" r="3.36" fill="#00CEC9"/><circle cx="68" cy="324" r="3.36" fill="#00CEC9"/><circle cx="84" cy="324" r="3.36" fill="#00CEC9"/><circle cx="100" cy="324" r="3.36" fill="#00CEC9"/><circle cx="108" cy="324" r="3.36" fill="#00CEC9"/><circle cx="116" cy="324" r="3.36" fill="#00CEC9"/><circle cx="124" cy="324" r="3.36" fill="#00CEC9"/><circle cx="148" cy="324" r="3.36" fill="#00CEC9"/><circle cx="172" cy="324" r="3.36" fill="#00CEC9"/><circle cx="180" cy="324" r="3.36" fill="#00CEC9"/><circle cx="196" cy="324" r="3.36" fill="#00CEC9"/><circle cx="204" cy="324" r="3.36" fill="#00CEC9"/><circle cx="212" cy="324" r="3.36" fill="#00CEC9"/><circle cx="220" cy="324" r="3.36" fill="#00CEC9"/><circle cx="228" cy="324" r="3.36" fill="#00CEC9"/><circle cx="236" cy="324" r="3.36" fill="#00CEC9"/><circle cx="244" cy="324" r="3.36" fill="#00CEC9"/><circle cx="284" cy="324" r="3.36" fill="#00CEC9"/><circle cx="308" cy="324" r="3.36" fill="#00CEC9"/><circle cx="324" cy="324" r="3.36" fill="#00CEC9"/><circle cx="332" cy="324" r="3.36" fill="#00CEC9"/><circle cx="340" cy="324" r="3.36" fill="#00CEC9"/><circle cx="348" cy="324" r="3.36" fill="#00CEC9"/><circle cx="356" cy="324" r="3.36" fill="#00CEC9"/><circle cx="364" cy="324" r="3.36" fill="#00CEC9"/><circle cx="100" cy="332" r="3.36" fill="#00CEC9"/><circle cx="108" cy="332" r="3.36" fill="#00CEC9"/><circle cx="124" cy="332" r="3.36" fill="#00CEC9"/><circle cx="140" cy="332" r="3.36" fill="#00CEC9"/><circle cx="188" cy="332" r="3.36" fill="#00CEC9"/><circle cx="196" cy="332" r="3.36" fill="#00CEC9"/><circle cx="228" cy="332" r="3.36" fill="#00CEC9"/><circle cx="236" cy="332" r="3.36" fill="#00CEC9"/><circle cx="244" cy="332" r="3.36" fill="#00CEC9"/><circle cx="260" cy="332" r="3.36" fill="#00CEC9"/><circle cx="284" cy="332" r="3.36" fill="#00CEC9"/><circle cx="324" cy="332" r="3.36" fill="#00CEC9"/><circle cx="356" cy="332" r="3.36" fill="#00CEC9"/><circle cx="372" cy="332" r="3.36" fill="#00CEC9"/><circle cx="100" cy="340" r="3.36" fill="#00CEC9"/><circle cx="124" cy="340" r="3.36" fill="#00CEC9"/><circle cx="132" cy="340" r="3.36" fill="#00CEC9"/><circle cx="148" cy="340" r="3.36" fill="#00CEC9"/><circle cx="172" cy="340" r="3.36" fill="#00CEC9"/><circle cx="180" cy="340" r="3.36" fill="#00CEC9"/><circle cx="196" cy="340" r="3.36" fill="#00CEC9"/><circle cx="212" cy="340" r="3.36" fill="#00CEC9"/><circle cx="228" cy="340" r="3.36" fill="#00CEC9"/><circle cx="236" cy="340" r="3.36" fill="#00CEC9"/><circle cx="244" cy="340" r="3.36" fill="#00CEC9"/><circle cx="252" cy="340" r="3.36" fill="#00CEC9"/><circle cx="292" cy="340" r="3.36" fill="#00CEC9"/><circle cx="324" cy="340" r="3.36" fill="#00CEC9"/><circle cx="340" cy="340" r="3.36" fill="#00CEC9"/><circle cx="356" cy="340" r="3.36" fill="#00CEC9"/><circle cx="364" cy="340" r="3.36" fill="#00CEC9"/><circle cx="372" cy="340" r="3.36" fill="#00CEC9"/><circle cx="380" cy="340" r="3.36" fill="#00CEC9"/><circle cx="116" cy="348" r="3.36" fill="#00CEC9"/><circle cx="140" cy="348" r="3.36" fill="#00CEC9"/><circle cx="148" cy="348" r="3.36" fill="#00CEC9"/><circle cx="156" cy="348" r="3.36" fill="#00CEC9"/><circle cx="164" cy="348" r="3.36" fill="#00CEC9"/><circle cx="188" cy="348" r="3.36" fill="#00CEC9"/><circle cx="196" cy="348" r="3.36" fill="#00CEC9"/><circle cx="228" cy="348" r="3.36" fill="#00CEC9"/><circle cx="252" cy="348" r="3.36" fill="#00CEC9"/><circle cx="260" cy="348" r="3.36" fill="#00CEC9"/><circle cx="292" cy="348" r="3.36" fill="#00CEC9"/><circle cx="300" cy="348" r="3.36" fill="#00CEC9"/><circle cx="324" cy="348" r="3.36" fill="#00CEC9"/><circle cx="356" cy="348" r="3.36" fill="#00CEC9"/><circle cx="364" cy="348" r="3.36" fill="#00CEC9"/><circle cx="372" cy="348" r="3.36" fill="#00CEC9"/><circle cx="380" cy="348" r="3.36" fill="#00CEC9"/><circle cx="108" cy="356" r="3.36" fill="#00CEC9"/><circle cx="116" cy="356" r="3.36" fill="#00CEC9"/><circle cx="124" cy="356" r="3.36" fill="#00CEC9"/><circle cx="140" cy="356" r="3.36" fill="#00CEC9"/><circle cx="156" cy="356" r="3.36" fill="#00CEC9"/><circle cx="172" cy="356" r="3.36" fill="#00CEC9"/><circle cx="188" cy="356" r="3.36" fill="#00CEC9"/><circle cx="196" cy="356" r="3.36" fill="#00CEC9"/><circle cx="204" cy="356" r="3.36" fill="#00CEC9"/><circle cx="212" cy="356" r="3.36" fill="#00CEC9"/><circle cx="220" cy="356" r="3.36" fill="#00CEC9"/><circle cx="228" cy="356" r="3.36" fill="#00CEC9"/><circle cx="252" cy="356" r="3.36" fill="#00CEC9"/><circle cx="260" cy="356" r="3.36" fill="#00CEC9"/><circle cx="268" cy="356" r="3.36" fill="#00CEC9"/><circle cx="284" cy="356" r="3.36" fill="#00CEC9"/><circle cx="292" cy="356" r="3.36" fill="#00CEC9"/><circle cx="300" cy="356" r="3.36" fill="#00CEC9"/><circle cx="316" cy="356" r="3.36" fill="#00CEC9"/><circle cx="324" cy="356" r="3.36" fill="#00CEC9"/><circle cx="332" cy="356" r="3.36" fill="#00CEC9"/><circle cx="340" cy="356" r="3.36" fill="#00CEC9"/><circle cx="348" cy="356" r="3.36" fill="#00CEC9"/><circle cx="356" cy="356" r="3.36" fill="#00CEC9"/><circle cx="364" cy="356" r="3.36" fill="#00CEC9"/><circle cx="372" cy="356" r="3.36" fill="#00CEC9"/><circle cx="100" cy="364" r="3.36" fill="#00CEC9"/><circle cx="108" cy="364" r="3.36" fill="#00CEC9"/><circle cx="124" cy="364" r="3.36" fill="#00CEC9"/><circle cx="156" cy="364" r="3.36" fill="#00CEC9"/><circle cx="164" cy="364" r="3.36" fill="#00CEC9"/><circle cx="180" cy="364" r="3.36" fill="#00CEC9"/><circle cx="204" cy="364" r="3.36" fill="#00CEC9"/><circle cx="212" cy="364" r="3.36" fill="#00CEC9"/><circle cx="244" cy="364" r="3.36" fill="#00CEC9"/><circle cx="252" cy="364" r="3.36" fill="#00CEC9"/><circle cx="276" cy="364" r="3.36" fill="#00CEC9"/><circle cx="284" cy="364" r="3.36" fill="#00CEC9"/><circle cx="300" cy="364" r="3.36" fill="#00CEC9"/><circle cx="308" cy="364" r="3.36" fill="#00CEC9"/><circle cx="324" cy="364" r="3.36" fill="#00CEC9"/><circle cx="332" cy="364" r="3.36" fill="#00CEC9"/><circle cx="348" cy="364" r="3.36" fill="#00CEC9"/><circle cx="388" cy="364" r="3.36" fill="#00CEC9"/><circle cx="100" cy="372" r="3.36" fill="#00CEC9"/><circle cx="108" cy="372" r="3.36" fill="#00CEC9"/><circle cx="140" cy="372" r="3.36" fill="#00CEC9"/><circle cx="148" cy="372" r="3.36" fill="#00CEC9"/><circle cx="164" cy="372" r="3.36" fill="#00CEC9"/><circle cx="180" cy="372" r="3.36" fill="#00CEC9"/><circle cx="188" cy="372" r="3.36" fill="#00CEC9"/><circle cx="196" cy="372" r="3.36" fill="#00CEC9"/><circle cx="204" cy="372" r="3.36" fill="#00CEC9"/><circle cx="212" cy="372" r="3.36" fill="#00CEC9"/><circle cx="220" cy="372" r="3.36" fill="#00CEC9"/><circle cx="228" cy="372" r="3.36" fill="#00CEC9"/><circle cx="236" cy="372" r="3.36" fill="#00CEC9"/><circle cx="252" cy="372" r="3.36" fill="#00CEC9"/><circle cx="260" cy="372" r="3.36" fill="#00CEC9"/><circle cx="268" cy="372" r="3.36" fill="#00CEC9"/><circle cx="276" cy="372" r="3.36" fill="#00CEC9"/><circle cx="300" cy="372" r="3.36" fill="#00CEC9"/><circle cx="308" cy="372" r="3.36" fill="#00CEC9"/><circle cx="316" cy="372" r="3.36" fill="#00CEC9"/><circle cx="324" cy="372" r="3.36" fill="#00CEC9"/><circle cx="332" cy="372" r="3.36" fill="#00CEC9"/><circle cx="340" cy="372" r="3.36" fill="#00CEC9"/><circle cx="108" cy="380" r="3.36" fill="#00CEC9"/><circle cx="164" cy="380" r="3.36" fill="#00CEC9"/><circle cx="172" cy="380" r="3.36" fill="#00CEC9"/><circle cx="188" cy="380" r="3.36" fill="#00CEC9"/><circle cx="196" cy="380" r="3.36" fill="#00CEC9"/><circle cx="204" cy="380" r="3.36" fill="#00CEC9"/><circle cx="236" cy="380" r="3.36" fill="#00CEC9"/><circle cx="260" cy="380" r="3.36" fill="#00CEC9"/><circle cx="268" cy="380" r="3.36" fill="#00CEC9"/><circle cx="276" cy="380" r="3.36" fill="#00CEC9"/><circle cx="284" cy="380" r="3.36" fill="#00CEC9"/><circle cx="316" cy="380" r="3.36" fill="#00CEC9"/><circle cx="340" cy="380" r="3.36" fill="#00CEC9"/><circle cx="388" cy="380" r="3.36" fill="#00CEC9"/><circle cx="108" cy="388" r="3.36" fill="#00CEC9"/><circle cx="116" cy="388" r="3.36" fill="#00CEC9"/><circle cx="124" cy="388" r="3.36" fill="#00CEC9"/><circle cx="132" cy="388" r="3.36" fill="#00CEC9"/><circle cx="140" cy="388" r="3.36" fill="#00CEC9"/><circle cx="156" cy="388" r="3.36" fill="#00CEC9"/><circle cx="172" cy="388" r="3.36" fill="#00CEC9"/><circle cx="188" cy="388" r="3.36" fill="#00CEC9"/><circle cx="196" cy="388" r="3.36" fill="#00CEC9"/><circle cx="204" cy="388" r="3.36" fill="#00CEC9"/><circle cx="212" cy="388" r="3.36" fill="#00CEC9"/><circle cx="220" cy="388" r="3.36" fill="#00CEC9"/><circle cx="244" cy="388" r="3.36" fill="#00CEC9"/><circle cx="252" cy="388" r="3.36" fill="#00CEC9"/><circle cx="268" cy="388" r="3.36" fill="#00CEC9"/><circle cx="276" cy="388" r="3.36" fill="#00CEC9"/><circle cx="300" cy="388" r="3.36" fill="#00CEC9"/><circle cx="308" cy="388" r="3.36" fill="#00CEC9"/><circle cx="316" cy="388" r="3.36" fill="#00CEC9"/><circle cx="324" cy="388" r="3.36" fill="#00CEC9"/><circle cx="340" cy="388" r="3.36" fill="#00CEC9"/><circle cx="348" cy="388" r="3.36" fill="#00CEC9"/><circle cx="372" cy="388" r="3.36" fill="#00CEC9"/><rect x="32" y="32" width="56" height="56" rx="19.2" ry="19.2" fill="#FFFFFF"/><rect x="40" y="40" width="40" height="40" rx="12.8" ry="12.8" fill="#000000"/><circle cx="60" cy="60" r="12" fill="#00CEC9"/><rect x="336" y="32" width="56" height="56" rx="19.2" ry="19.2" fill="#FFFFFF"/><rect x="344" y="40" width="40" height="40" rx="12.8" ry="12.8" fill="#000000"/><circle cx="364" cy="60" r="12" fill="#00CEC9"/><rect x="32" y="336" width="56" height="56" rx="19.2" ry="19.2" fill="#FFFFFF"/><rect x="40" y="344" width="40" height="40" rx="12.8" ry="12.8" fill="#000000"/><circle cx="60" cy="364" r="12" fill="#00CEC9"/></svg>